<svg width="320" height="320" viewBox="0 0 320 320" fill="none" xmlns="http://www.w3.org/2000/svg">
  <defs>
    <linearGradient id="bg" x1="44" y1="36" x2="276" y2="284" gradientUnits="userSpaceOnUse">
      <stop stop-color="#0B1026"/>
      <stop offset="1" stop-color="#131B4D"/>
    </linearGradient>
    <radialGradient id="orb" cx="0" cy="0" r="1" gradientUnits="userSpaceOnUse" gradientTransform="translate(116 106) rotate(44.2455) scale(166.541 180.112)">
      <stop stop-color="#3AF3FF"/>
      <stop offset="0.48" stop-color="#135BFF"/>
      <stop offset="1" stop-color="#F69CFF"/>
    </radialGradient>
    <linearGradient id="beanieTop" x1="89" y1="57" x2="231" y2="123" gradientUnits="userSpaceOnUse">
      <stop stop-color="#CC7A20"/>
      <stop offset="1" stop-color="#8D4512"/>
    </linearGradient>
    <linearGradient id="beanieRib" x1="83" y1="111" x2="237" y2="141" gradientUnits="userSpaceOnUse">
      <stop stop-color="#A95D17"/>
      <stop offset="1" stop-color="#73380E"/>
    </linearGradient>
  </defs>

  <rect x="20" y="20" width="280" height="280" rx="72" fill="url(#bg)"/>
  <circle cx="160" cy="156" r="96" fill="#1535C0" fill-opacity="0.22"/>
  <circle cx="160" cy="156" r="86" fill="url(#orb)"/>
  <ellipse cx="160" cy="262" rx="54" ry="12" fill="#060B22" fill-opacity="0.72"/>

  <path d="M89 113C94 74 123 46 162 46C198 46 228 70 233 104L237 127H83L89 113Z" fill="url(#beanieTop)"/>
  <rect x="83" y="111" width="154" height="32" rx="16" fill="url(#beanieRib)"/>
  <path d="M106 120L101 76" stroke="#7B390E" stroke-width="3" stroke-linecap="round"/>
  <path d="M129 120L126 70" stroke="#7B390E" stroke-width="3" stroke-linecap="round"/>
  <path d="M152 120V66" stroke="#7B390E" stroke-width="3" stroke-linecap="round"/>
  <path d="M176 120L179 69" stroke="#7B390E" stroke-width="3" stroke-linecap="round"/>
  <path d="M199 120L206 75" stroke="#7B390E" stroke-width="3" stroke-linecap="round"/>

  <ellipse cx="128" cy="156" rx="18" ry="28" fill="#15151F"/>
  <ellipse cx="197" cy="156" rx="18" ry="28" fill="#15151F"/>
  <path d="M145 205C152 215 167 215 177 204" stroke="#15151F" stroke-width="10" stroke-linecap="round"/>
</svg>
